<svg xmlns="http://www.w3.org/2000/svg" width="99.102" height="45.392" viewBox="0 0 99.102 45.392">
  <g id="Path_3" data-name="Path 3" transform="translate(1.948)" fill="none">
    <path d="M49.241,0C75.7,0,97.155,22.7,97.155,22.7s-21.452,22.7-47.914,22.7S-1.948,22.7-1.948,22.7,22.778,0,49.241,0Z" stroke="none"/>
    <path d="M 49.24068832397461 5.000003814697266 C 43.80604934692383 5.000003814697266 37.95625305175781 6.084129333496094 31.85381317138672 8.222259521484375 C 26.84896087646484 9.975822448730469 21.67374420166016 12.43463897705078 16.47193908691406 15.53043937683105 C 12.15412139892578 18.10013771057129 8.527992248535156 20.69219589233398 5.918594360351562 22.69828414916992 C 8.482627868652344 24.66938972473145 12.03629302978516 27.2098217010498 16.28925323486328 29.75284004211426 C 21.51284790039062 32.87623977661133 26.71132659912109 35.35831451416016 31.74028778076172 37.13011169433594 C 37.8841438293457 39.29471206665039 43.77214050292969 40.39225769042969 49.24068832397461 40.39225769042969 C 54.63883209228516 40.39225769042969 60.28361511230469 39.32078552246094 66.01821899414062 37.20762252807617 C 70.71348571777344 35.47743988037109 75.47727203369141 33.05067443847656 80.17723083496094 29.99473190307617 C 84.22283935546875 27.3642578125 87.53251647949219 24.7084789276123 89.84433746337891 22.69613075256348 C 87.53251647949219 20.68378257751465 84.22283935546875 18.02800369262695 80.17723083496094 15.39753150939941 C 75.47727203369141 12.34158706665039 70.71348571777344 9.914821624755859 66.01821899414062 8.184638977050781 C 60.28361511230469 6.071475982666016 54.63883209228516 5.000003814697266 49.24068832397461 5.000003814697266 M 49.24068832397461 3.814697265625e-06 C 75.70288848876953 3.814697265625e-06 97.15473937988281 22.69613075256348 97.15473937988281 22.69613075256348 C 97.15473937988281 22.69613075256348 75.70288848876953 45.39225769042969 49.24068832397461 45.39225769042969 C 22.77848815917969 45.39225769042969 -1.947509765625 22.69613075256348 -1.947509765625 22.69613075256348 C -1.947509765625 22.69613075256348 22.77848815917969 3.814697265625e-06 49.24068832397461 3.814697265625e-06 Z" stroke="none" fill="#ceedf3"/>
  </g>
</svg>
