<svg xmlns="http://www.w3.org/2000/svg" width="58" height="57" viewBox="0 0 58 57">
  <g id="Trash_button" data-name="Trash button" transform="translate(-775 -123)">
    <ellipse id="Ellipse_4" data-name="Ellipse 4" cx="29" cy="28.5" rx="29" ry="28.5" transform="translate(775 123)" fill="#ceedf3"/>
    <path id="Path_4" data-name="Path 4" d="M27,7V26a7,7,0,0,1-7,7H7a7,7,0,0,1-7-7V7Z" transform="translate(790.5 136)" fill="#036b80"/>
    <path id="Path_6" data-name="Path 6" d="M0,0A73.875,73.875,0,0,1,21,0c5.25,1,4.752,4,4.752,4H-4.52S-5.25,1,0,0Z" transform="translate(793.395 138.25)" fill="#036b80"/>
    <g id="Rectangle_32" data-name="Rectangle 32" transform="translate(799 134)" fill="rgba(3,107,128,0)" stroke="#036b80" stroke-width="1">
      <rect width="10" height="7" rx="3" stroke="none"/>
      <rect x="0.5" y="0.5" width="9" height="6" rx="2.5" fill="none"/>
    </g>
    <line id="Line_9" data-name="Line 9" y2="18" transform="translate(797 146.5)" fill="none" stroke="#ceedf3" stroke-linecap="round" stroke-width="2"/>
    <line id="Line_10" data-name="Line 10" y2="18" transform="translate(804 146.5)" fill="none" stroke="#ceedf3" stroke-linecap="round" stroke-width="2"/>
    <line id="Line_11" data-name="Line 11" y2="18" transform="translate(811 146.5)" fill="none" stroke="#ceedf3" stroke-linecap="round" stroke-width="2"/>
  </g>
</svg>
